<?xml version="1.0" standalone="no"?>
<!DOCTYPE svg PUBLIC "-//W3C//DTD SVG 20010904//EN"
 "http://www.w3.org/TR/2001/REC-SVG-20010904/DTD/svg10.dtd">
<svg version="1.0" xmlns="http://www.w3.org/2000/svg"
 width="277.000000pt" height="121.000000pt" viewBox="0 0 277.000000 121.000000"
 preserveAspectRatio="xMidYMid meet">

<g transform="translate(0.000000,121.000000) scale(0.100000,-0.100000)"
fill="#000000" stroke="none">
<path d="M0 605 l0 -605 410 0 410 0 0 605 0 605 -410 0 -410 0 0 -605z m748
326 c-2 -71 -7 -95 -24 -117 -26 -36 -62 -61 -96 -70 -26 -6 -28 -4 -28 25 0
24 7 34 30 46 26 13 50 42 50 59 0 3 -18 6 -40 6 l-40 0 0 70 0 70 76 0 76 0
-4 -89z m-338 -66 l0 -55 55 0 55 0 0 -45 0 -45 -55 0 -55 0 0 -145 c0 -137 1
-145 21 -156 12 -6 37 -9 55 -6 l34 6 0 -43 c0 -41 -2 -44 -31 -50 -89 -17
-166 4 -190 52 -9 18 -14 79 -17 185 l-4 157 -29 0 c-28 0 -29 2 -29 45 0 43
1 45 30 45 30 0 30 1 30 55 l0 55 65 0 65 0 0 -55z"/>
<path d="M890 640 l0 -321 63 3 62 3 3 128 3 127 44 0 45 0 65 -130 65 -130
76 0 75 0 -42 77 c-24 43 -60 107 -81 143 -34 58 -36 66 -21 75 56 34 82 68
92 118 18 89 -10 161 -80 202 -30 17 -56 20 -201 23 l-168 4 0 -322z m265 215
c53 -21 71 -86 40 -144 -17 -34 -59 -51 -126 -51 l-49 0 0 105 0 105 50 0 c28
0 66 -7 85 -15z"/>
<path d="M2500 865 c0 -54 0 -55 -30 -55 -29 0 -30 -2 -30 -45 0 -43 1 -45 30
-45 l30 0 0 -155 c0 -177 8 -207 65 -231 40 -16 112 -18 149 -4 22 8 26 16 26
49 l0 40 -35 -6 c-23 -4 -43 0 -60 11 -25 16 -25 18 -25 156 l0 140 55 0 55 0
0 45 0 45 -55 0 -55 0 0 55 0 55 -60 0 -60 0 0 -55z"/>
<path d="M1596 809 c-60 -14 -103 -46 -133 -97 -23 -39 -28 -60 -31 -137 -4
-83 -2 -94 25 -145 23 -46 37 -60 82 -82 47 -24 66 -28 135 -27 51 0 98 6 126
17 43 17 45 20 48 60 2 23 2 42 0 42 -2 0 -25 -7 -52 -15 -122 -37 -214 -6
-241 83 l-6 22 155 0 156 0 0 58 c0 102 -34 173 -99 206 -36 19 -119 26 -165
15z m92 -85 c26 -7 52 -51 52 -89 l0 -25 -96 0 c-84 0 -95 2 -90 16 3 9 6 22
6 31 0 23 56 73 82 73 13 0 33 -3 46 -6z"/>
<path d="M2145 802 c-27 -11 -58 -22 -67 -27 -14 -5 -18 -2 -18 14 0 19 -6 21
-55 21 l-55 0 0 -245 0 -246 58 3 57 3 3 187 2 187 56 12 c48 11 61 10 83 -2
l26 -15 5 -184 5 -185 60 0 60 0 3 186 c3 204 -5 249 -48 281 -38 28 -115 32
-175 10z"/>
</g>
</svg>
